<?xml version="1.0" encoding="utf-8"?>
<svg version="1.1" xmlns="http://www.w3.org/2000/svg" xmlns:xlink="http://www.w3.org/1999/xlink" x="0px" y="0px" viewBox="0 0 350 144" style="enable-background:new 0 0 350 144;" xml:space="preserve">
<style type="text/css">
	<![CDATA[
	@import url("https://fonts.googleapis.com/css2?family=Inter:wght@300;700&display=block");
	.backgroundColor{fill:#26272D;}
	.backgroundColorLine{stroke:#26272D;}
	.backgroundInnerLineOpacity{opacity:1;}
	.statsBaseLineStyle{fill:none; stroke:#FFFFFF; stroke-width:0.5; opacity:0.2;}
	.statsBaseIconStyle{fill:#FFFFFF; opacity:0.2;}
	.currentStatsShapeStyle{opacity:0.8; stroke:#FFFFFF; stroke-width:1;}
	.currentStatsLoadingStyle{opacity:0.8; stroke:#FFFFFF; stroke-width:1;}
	.textGithubIDStyle{font-family: "Inter", Sans-Serif;font-weight: 700;font-size: 12px; fill: #FFFFFF;}
	.textCurrentAverageStyle{font-family: "Inter", Sans-Serif;font-weight: 700;font-size: 12px; fill: #FFFFFF;}
	.textCurrentStatsNumberStyle{font-family: "Inter", Sans-Serif;font-weight: 300;font-size: 9px; fill: #FFFFFF;}
	.textSubtitleStyle{font-family: "Inter", Sans-Serif;font-weight: 300;font-size: 11px; fill: #FFFFFF; opacity:0.5;}
	.textLabelStyle{font-family: "Inter", Sans-Serif;font-weight: 300;font-size: 10px; fill: #FFFFFF; }
	.textLabelSubStyle{font-family: "Inter", Sans-Serif;font-weight: 300;font-size: 10px; fill: #FFFFFF; opacity:0.5;}
	.textInfoStyle{font-family: "Inter", Sans-Serif;font-weight: 300;font-size: 8.5px; fill: #FFFFFF; opacity:0.3;}
	]]>

</style>
<g id="background">
	<path id="backgroundBox" class="backgroundColor" d="M342,144H8c-4.42,0-8-3.58-8-8V8c0-4.42,3.58-8,8-8h334c4.42,0,8,3.58,8,8v128C350,140.42,346.42,144,342,144z"/>
	<path id="backgroundInnerLine" class="backgroundInnerLineOpacity" style="fill:none;stroke:url(#backgroundInnerLineGradient);stroke-width:0.5;stroke-miterlimit:10;" d="M338,140H12c-4.42,0-8-3.58-8-8V12c0-4.42,3.58-8,8-8h326c4.42,0,8,3.58,8,8v120C346,136.42,342.42,140,338,140z"/>
	<linearGradient id="backgroundInnerLineGradient" gradientUnits="userSpaceOnUse" x1="3.75" y1="100" x2="346.25" y2="100">
		<stop  offset="0" style="stop-color:#AE7BFA"/>
		<stop  offset="0.5219" style="stop-color:#6489E7"/>
		<stop  offset="1" style="stop-color:#78EDFD"/>
	</linearGradient>
</g>
<g id="statsBaseLines">
	<polygon id="0p3xBase" class="statsBaseLineStyle" points="278,64.5 284.51,68.25 284.51,75.75 278,79.5 271.49,75.75 271.49,68.25"/>
	<polygon id="10p4x" class="statsBaseLineStyle" points="278,62 286.67,67 286.67,77 278,82 269.33,77 269.33,67"/>
	<polygon id="20p5x" class="statsBaseLineStyle" points="278,59.5 288.85,65.75 288.85,78.25 278,84.5 267.15,78.25 267.15,65.75"/>
	<polygon id="30p6x" class="statsBaseLineStyle" points="278,57 291.02,64.5 291.02,79.5 278,87 264.99,79.5 264.99,64.5"/>
	<polygon id="40p7x" class="statsBaseLineStyle" points="278,54.5 293.18,63.25 293.18,80.75 278,89.5 262.82,80.75 262.82,63.25"/>
	<polygon id="50p8x" class="statsBaseLineStyle" points="278,52 295.35,62 295.35,82 278,92 260.65,82 260.65,62"/>
	<polygon id="60p9x" class="statsBaseLineStyle" points="278,49.5 297.52,60.75 297.52,83.25 278,94.5 258.48,83.25 258.48,60.75"/>
	<polygon id="70p10x" class="statsBaseLineStyle" points="278,47 299.69,59.5 299.69,84.5 278,97 256.31,84.5 256.31,59.5"/>
	<polygon id="80p11x" class="statsBaseLineStyle" points="278,44.5 301.86,58.25 301.86,85.75 278,99.5 254.15,85.75 254.15,58.25"/>
	<polygon id="90p12x" class="statsBaseLineStyle" points="278,42 304.02,57 304.02,87 278,102 251.98,87 251.98,57"/>
	<polygon id="100p13xFull" class="statsBaseLineStyle" points="278,39.5 306.2,55.75 306.2,88.25 278,104.5 249.81,88.25 249.81,55.75"/>
	<polygon id="110p14xOuter" class="statsBaseLineStyle" points="278,37 308.36,54.5 308.36,89.5 278,107 247.63,89.5 247.63,54.5"/>
</g>
<g id="statsBaseIcons">
	<g id="iconType1People">
		<g>
			<defs>
				<rect id="iconType1Box" x="266" y="23" width="12" height="12"/>
			</defs>
			<clipPath id="iconType1Clipper">
				<use xlink:href="#iconType1Box"  style="overflow:visible;"/>
			</clipPath>
			<g style="clip-path:url(#iconType1Clipper);">
				<path class="statsBaseIconStyle" d="M276.33,30.25l-4.19,2.61v-5.23L276.33,30.25z"/>
				<path class="statsBaseIconStyle" d="M267.57,31.95l3.51-2.19v4.38L267.57,31.95z"/>
				<path class="statsBaseIconStyle" d="M273.54,27.12c0.78,0,1.42-0.63,1.42-1.42c0-0.78-0.63-1.42-1.42-1.42c-0.79,0-1.42,0.63-1.42,1.42C272.12,26.49,272.76,27.12,273.54,27.12z"/>
				<path class="statsBaseIconStyle" d="M269.86,29.24c0.67,0,1.22-0.55,1.22-1.22s-0.55-1.22-1.22-1.22c-0.67,0-1.22,0.55-1.22,1.22S269.19,29.24,269.86,29.24z"/>
			</g>
		</g>
	</g>
	<g id="iconType2Tree">
		<g>
			<defs>
				<rect id="iconType2Box" x="310" y="48" width="12" height="12"/>
			</defs>
			<clipPath id="iconType2Clipper">
				<use xlink:href="#iconType2Box"  style="overflow:visible;"/>
			</clipPath>
			<g style="clip-path:url(#iconType2Clipper);">
				<path class="statsBaseIconStyle" d="M316,54.86l2.55,4.1h-5.11L316,54.86z"/>
				<path class="statsBaseIconStyle" d="M318.15,56.23c0.73-0.47,1.29-1.16,1.6-1.97c0.3-0.81,0.33-1.7,0.09-2.54c-0.25-0.83-0.76-1.56-1.46-2.08c-0.7-0.52-1.55-0.79-2.42-0.78c-0.87,0.01-1.71,0.3-2.4,0.83s-1.19,1.27-1.42,2.11c-0.23,0.84-0.18,1.73,0.14,2.54c0.32,0.81,0.89,1.49,1.64,1.94l2.13-3.42L318.15,56.23z"/>
			</g>
		</g>
	</g>
	<g id="iconType3Fire">
		<g>
			<defs>
				<rect id="iconType3Box" x="310" y="83.5" width="12" height="12"/>
			</defs>
			<clipPath id="iconType3Clipper">
				<use xlink:href="#iconType3Box"  style="overflow:visible;"/>
			</clipPath>
			<g style="clip-path:url(#iconType3Clipper);">
				<path class="statsBaseIconStyle" d="M312.99,86.33l6.77,5.09l-3.71,2.98l-3.71-2.98L312.99,86.33z"/>
				<path class="statsBaseIconStyle" d="M315.5,84.31l1.11,1.74l-1.11,0.89l-1.11-0.89L315.5,84.31z"/>
				<path class="statsBaseIconStyle" d="M319.1,85.45l-2.69,2.2l3.34,2.52L319.1,85.45z"/>
			</g>
		</g>
	</g>
	<g id="icontype4Soil">
		<g>
			<defs>
				<rect id="icontype4Box" x="266" y="109" width="12" height="12"/>
			</defs>
			<clipPath id="icontype4Clipper">
				<use xlink:href="#icontype4Box"  style="overflow:visible;"/>
			</clipPath>
			<g style="clip-path:url(#icontype4Clipper);">
				<path class="statsBaseIconStyle" d="M272.18,116.98c-0.79-0.35-1.55-0.35-2.3,0.12c-0.31,0.2-0.62,0.41-0.92,0.62c-0.15,0.1-0.3,0.21-0.45,0.31c0.41,0.47,0.91,0.86,1.48,1.13c0.56,0.27,1.18,0.43,1.8,0.46c0.63,0.03,1.25-0.07,1.84-0.29c0.59-0.22,1.12-0.56,1.57-0.99c-0.48-0.12-0.95-0.29-1.38-0.52C273.28,117.52,272.74,117.23,272.18,116.98z"/>
				<path class="statsBaseIconStyle" d="M270.26,111.88c0.85,0,1.64,0.25,2.42,0.54c1.25,0.46,2.49,0.97,3.77,1.34c-0.24-0.84-0.7-1.6-1.35-2.18c-0.65-0.59-1.45-0.98-2.31-1.12c-0.86-0.15-1.74-0.05-2.55,0.28s-1.5,0.89-2.01,1.6l0.05-0.02C268.92,112.07,269.57,111.88,270.26,111.88z"/>
				<path class="statsBaseIconStyle" d="M273.67,113.92c-0.88-0.33-1.75-0.71-2.69-0.87c-0.55-0.1-1.12-0.09-1.67,0.05c-0.6,0.16-1.19,0.38-1.75,0.64c-0.33,1.16-0.19,2.4,0.38,3.46c0.12-0.07,0.25-0.15,0.36-0.23c0.51-0.34,0.99-0.72,1.52-1.01c0.56-0.3,1.14-0.42,1.76-0.27c0.7,0.17,1.33,0.52,1.97,0.87c0.76,0.41,1.55,0.75,2.42,0.8c0.42-0.71,0.64-1.52,0.64-2.35c0-0.03,0-0.06,0-0.08c-0.41-0.11-0.81-0.22-1.2-0.36C274.83,114.35,274.25,114.14,273.67,113.92z"/>
			</g>
		</g>
	</g>
	<g id="iconType5Gold">
		<g>
			<defs>
				<rect id="iconType5Box" x="219" y="83.5" width="12" height="12"/>
			</defs>
			<clipPath id="iconType5Clipper">
				<use xlink:href="#iconType5Box"  style="overflow:visible;"/>
			</clipPath>
			<g style="clip-path:url(#iconType5Clipper);">
				<path class="statsBaseIconStyle" d="M221.19,89.37l3.74-4.86l3.74,4.86l-3.74,4.86L221.19,89.37z"/>
				<path class="statsBaseIconStyle" d="M227.68,92.25l1.06-1.38l1.06,1.38l-1.06,1.38L227.68,92.25z"/>
				<path class="statsBaseIconStyle" d="M220.74,86.47l0.77-1l0.77,1l-0.77,1L220.74,86.47z"/>
			</g>
		</g>
	</g>
	<g id="iconType6Water">
		<g>
			<defs>
				<rect id="iconType6Box" x="219" y="48" width="12" height="12"/>
			</defs>
			<clipPath id="iconType6Clipper">
				<use xlink:href="#iconType6Box"  style="overflow:visible;"/>
			</clipPath>
			<g style="clip-path:url(#iconType6Clipper);">
				<path class="statsBaseIconStyle" d="M228.07,53.83c0.52,0.18,1.03,0.39,1.53,0.56c0.01-0.13,0.02-0.26,0.02-0.39c0-1.09-0.38-2.14-1.08-2.97s-1.67-1.39-2.74-1.58c-1.07-0.19-2.17,0.01-3.11,0.56c-0.94,0.55-1.66,1.41-2.03,2.43c1.22-0.26,2.37,0.05,3.41,0.87c0.36,0.28,0.68,0.59,1.01,0.91C225.91,53.59,227.08,53.5,228.07,53.83z"/>
				<path class="statsBaseIconStyle" d="M228.35,54.88c-0.84-0.29-1.81-0.39-2.59-0.04c0.07,0.06,0.13,0.11,0.2,0.17c0.87,0.7,1.89,1.18,2.99,1.39c0.2-0.34,0.36-0.7,0.48-1.08C229.07,55.16,228.72,55.01,228.35,54.88z"/>
				<path class="statsBaseIconStyle" d="M223.87,54.26c-1.05-0.83-2.22-1.13-3.45-0.86c-0.13,0.96,0.05,1.93,0.51,2.79c0.46,0.85,1.17,1.54,2.04,1.96c0.87,0.42,1.85,0.57,2.8,0.4c0.95-0.16,1.83-0.62,2.51-1.31c-0.92-0.25-1.78-0.69-2.52-1.29C225.1,55.43,224.54,54.78,223.87,54.26z"/>
			</g>
		</g>
	</g>
</g>
<g id="averageContainer">
	<polygon id="averageContainerLine" style="fill:none;stroke:url(#averageContainerLineGradient);stroke-width:1;stroke-miterlimit:10;" points="40,58 55,66.5 55,83.5 40,92 25,83.5 25,66.5 "/>
	<linearGradient id="averageContainerLineGradient" gradientUnits="userSpaceOnUse" x1="24.75" y1="75" x2="55.25" y2="75">
	<stop  offset="0" style="stop-color:#AE7BFA"/>
	<stop  offset="0.5219" style="stop-color:#6489E7"/>
	<stop  offset="1" style="stop-color:#78EDFD"/>
	</linearGradient>
</g>
<g id="currentStatsShapeLoading">
	<g id="infiniteLoadingGroup">
		<polygon id="currentStatsShapeLoadingShape1" fill="url(#currentStatsShapeGradient)"/>
		<polygon id="currentStatsShapeLoadingShape2" fill="url(#currentStatsShapeGradient)"/>
		<animate xlink:href="#currentStatsShapeLoadingShape1" attributeName="points" attributeType="XML" dur="2s" begin="0s" fill="freeze" repeatCount="indefinite"  from="278,64.5 284.51,68.25 284.51,75.75 278,79.5 271.49,75.75 271.49,68.25" to="278,39.5 306.2,55.75 306.2,88.25 278,104.5 249.81,88.25 249.81,55.75"/>
		<animate xlink:href="#currentStatsShapeLoadingShape1" attributeName="opacity" attributeType="XML" dur="2s" begin="0s" fill="freeze" repeatCount="indefinite" from="0.5" to="0"/>
		<animate xlink:href="#currentStatsShapeLoadingShape2" attributeName="points" attributeType="XML" dur="2s" begin="0.6s" fill="freeze" repeatCount="indefinite" from="278,64.5 284.51,68.25 284.51,75.75 278,79.5 271.49,75.75 271.49,68.25" to="278,39.5 306.2,55.75 306.2,88.25 278,104.5 249.81,88.25 249.81,55.75"/>
		<animate xlink:href="#currentStatsShapeLoadingShape2" attributeName="opacity" attributeType="XML" dur="2s" begin="0.6s" fill="freeze" repeatCount="indefinite" from="0.5" to="0"/>
		<linearGradient id="currentStatsShapeGradient" gradientUnits="userSpaceOnUse" x1="250" y1="72" x2="306" y2="72">
			<stop  offset="0" style="stop-color:#AE7BFA"/>
			<stop  offset="0.5" style="stop-color:#6489E7"/>
			<stop  offset="1" style="stop-color:#78EDFD"/>
		</linearGradient>
	</g>
	<animate begin="4.5s" xlink:href="#infiniteLoadingGroup" attributeName="opacity" attributeType="XML" dur="1s" fill="freeze" from="1" to="0"/>
</g>
<!-- Edit points of the current stats shape @ to="__target-points__" of animate -->
<!-- points of 0% stats shape = "278,64.5 284.51,68.25 284.51,75.75 278,79.5 271.49,75.75 271.49,68.25" -->
<!-- points of 100% stats shape = "278,39.5 306.2,55.75 306.2,88.25 278,104.5 249.81,88.25 249.81,55.75" -->
<!-- Edit shape morphing animation beginning time (4.5s) @ begin="__beginning-time__s" -->
<g id="currentStatsShape">
    <polygon id="currentStats" class="currentStatsShapeStyle" fill="url(#currentStatsShapeGradient)" points="278,64.5 284.51,68.25 284.51,75.75 278,79.5 271.49,75.75 271.49,68.25"/>
    <animate to="278,39.5 306.2,55.75 306.2,88.25 278,104.5 249.81,88.25 249.81,55.75" begin="4.5s" xlink:href="#currentStats" attributeName="points" attributeType="XML" dur="0.6s" fill="freeze"/>
	<linearGradient id="currentStatsShapeGradient" gradientUnits="userSpaceOnUse" x1="250" y1="72" x2="306" y2="72">
		<stop  offset="0" style="stop-color:#AE7BFA"/>
		<stop  offset="0.5" style="stop-color:#6489E7"/>
		<stop  offset="1" style="stop-color:#78EDFD"/>
	</linearGradient>
</g>
<!-- Edit tier svg address @ xlink:href="__svg__" -->
<g id="currentTierImage">
	<image x="112" y="57" width="36" height="36" xlink:href="https://dev.w3.org/SVG/tools/svgweb/samples/svg-files/alphachannel.svg"/>
</g>
<!-- Edit people points (01) @ the text of id="currentStatsNumberTextType1" -->
<!-- Edit tree points (02) @ the text of id="currentStatsNumberTextType2" -->
<!-- Edit fire points (03) @ the text of id="currentStatsNumberTextType3" -->
<!-- Edit soil points (04) @ the text of id="currentStatsNumberTextType4" -->
<!-- Edit gold points (05) @ the text of id="currentStatsNumberTextType5" -->
<!-- Edit water points (06) @ the text of id="currentStatsNumberTextType6" -->
<g id="currentStatsNumberText">
	<text id="currentStatsNumberTextType1" x="279" y="32" class="textCurrentStatsNumberStyle">01</text>
	<text id="currentStatsNumberTextType2" x="323" y="57" class="textCurrentStatsNumberStyle">02</text>
	<text id="currentStatsNumberTextType3" x="323" y="92.5" class="textCurrentStatsNumberStyle">03</text>
	<text id="currentStatsNumberTextType4" x="279" y="118" class="textCurrentStatsNumberStyle">04</text>
	<text id="currentStatsNumberTextType5" x="232" y="92.5" class="textCurrentStatsNumberStyle">05</text>
	<text id="currentStatsNumberTextType6" x="232" y="57" class="textCurrentStatsNumberStyle">06</text>
</g>
<!-- Edit github id (hyochan) @ the text after class="textGithubIDStyle of id="textTitle" -->
<!-- Edit average points (77) @ the text of id="textAverage" -->
<!-- Edit tier name (Challenger) @ the text after class="textLabelStyle" of id="textTierLabel" -->
<g id="text">
	<text id="textTitle" x="24" y="33" class="textGithubIDStyle">hyochan<tspan class="textSubtitleStyle"> GitHub Stats</tspan></text>
	<text id="textAverage" x="40" y="76" class="textCurrentAverageStyle" dominant-baseline="middle" text-anchor="middle">77</text>
	<g id="textAverageLabel">
		<text x="62" y="72" class="textLabelStyle">Average</text>
		<text x="62" y="86" class="textLabelSubStyle">Points</text>
	</g>
	<g id="textTierLabel">
		<text x="152" y="72" class="textLabelStyle">Challenger</text>
		<text x="152" y="86" class="textLabelSubStyle">Tier</text>
	</g>
	<a href="https://dooboo.io" target="_blank"><text id="textInfo" x="24" y="121" class="textInfoStyle">Designed by dooboolab.io</text></a>
</g>
</svg>