<?xml version="1.0" encoding="utf-8"?>
<svg version="1.1" xmlns="http://www.w3.org/2000/svg" xmlns:xlink="http://www.w3.org/1999/xlink" x="0px" y="0px"
	 viewBox="0 0 350 200" style="enable-background:new 0 0 350 200;" xml:space="preserve">
<style type="text/css">
	<![CDATA[
	@import url("https://fonts.googleapis.com/css2?family=Inter:wght@300;700&display=block");
	.backgroundColor{fill:#26272D;}
	.backgroundColorLine{stroke:#26272D;}
	.backgroundInnerLineOpacity{opacity:1;}
	.statBgLineStyle{fill:none; stroke:#FFFFFF; stroke-width:0.5; opacity:0.2;}
	.statBgIconStyle{fill:#FFFFFF; opacity:0.2;}
	.currentStatsStyle{opacity:0.8; stroke:#FFFFFF; stroke-width:1;}
	.currentStatsLoadingStyle{opacity:0.8; stroke:#FFFFFF; stroke-width:1;}
	.textGithubIDStyle{font-family: "Inter", Sans-Serif;font-weight: 700;font-size: 20px; fill: #FFFFFF;}
	.textSubtitleStyle{font-family: "Inter", Sans-Serif;font-weight: 300;font-size: 12px; fill: #FFFFFF; opacity:0.5;}
	.textContentStyle{font-family: "Inter", Sans-Serif;font-weight: 700;font-size: 14px; fill: #FFFFFF; }
	.textContentLabelStyle{font-family: "Inter", Sans-Serif;font-weight: 300;font-size: 10px; fill: #FFFFFF; opacity:0.5;}
	.textInfoStyle{font-family: "Inter", Sans-Serif;font-weight: 300;font-size: 10px; fill: #FFFFFF; opacity:0.5;}
	]]>

</style>
<g id="background">
	<path id="backgroundBox" class="backgroundColor" d="M342,200H8c-4.42,0-8-3.58-8-8V8c0-4.42,3.58-8,8-8h334c4.42,0,8,3.58,8,8v184
		C350,196.42,346.42,200,342,200z"/>
	<path id="backgroundInnerLine" class="backgroundInnerLineOpacity" style="fill:none;stroke:url(#backgroundInnerLineGradient);stroke-width:0.5;stroke-miterlimit:10;" d="
		M338,196H12c-4.42,0-8-3.58-8-8V12c0-4.42,3.58-8,8-8h326c4.42,0,8,3.58,8,8v176C346,192.42,342.42,196,338,196z"/>
	<linearGradient id="backgroundInnerLineGradient" gradientUnits="userSpaceOnUse" x1="3.75" y1="100" x2="346.25" y2="100">
		<stop  offset="0" style="stop-color:#AE7BFA"/>
		<stop  offset="0.5219" style="stop-color:#6489E7"/>
		<stop  offset="1" style="stop-color:#78EDFD"/>
	</linearGradient>
</g>
<g id="statBgLines">
	<polygon id="0p3xBase" class="statBgLineStyle" points="100,85 113.01,92.5 113.01,107.5 100,115 86.99,107.5 86.99,92.5 "/>
	<polygon id="10p4x" class="statBgLineStyle" points="100,80 117.35,90 117.35,110 100,120 82.65,110 82.65,90 "/>
	<polygon id="20p5x" class="statBgLineStyle" points="100,75 121.69,87.5 121.69,112.5 100,125 78.31,112.5 78.31,87.5 "/>
	<polygon id="30p6x" class="statBgLineStyle" points="100,70 126.03,85 126.03,115 100,130 73.97,115 73.97,85 "/>
	<polygon id="40p7x" class="statBgLineStyle" points="100,65 130.36,82.5 130.36,117.5 100,135 69.64,117.5 69.64,82.5 "/>
	<polygon id="50p8x" class="statBgLineStyle" points="100,60 134.7,80 134.7,120 100,140 65.3,120 65.3,80 "/>
	<polygon id="60p9x" class="statBgLineStyle" points="100,55 139.04,77.5 139.04,122.5 100,145 60.96,122.5 60.96,77.5 "/>
	<polygon id="70p10x" class="statBgLineStyle" points="100,50 143.38,75 143.38,125 100,150 56.62,125 56.62,75 "/>
	<polygon id="80p11x" class="statBgLineStyle" points="100,45 147.71,72.5 147.71,127.5 100,155 52.29,127.5 52.29,72.5 "/>
	<polygon id="90p12x" class="statBgLineStyle" points="100,40 152.05,70 152.05,130 100,160 47.95,130 47.95,70 "/>
	<polygon id="100p13xFull" class="statBgLineStyle" points="100,35 156.39,67.5 156.39,132.5 100,165 43.61,132.5 43.61,67.5 "/>
	<polygon id="110p14xOuter" class="statBgLineStyle" points="100,30 160.73,65 160.73,135 100,170 39.27,135 39.27,65 "/>
</g>
<g id="statBgIcons">
	<g id="octaType1People">
		<defs>
			<rect id="octaType1ClipperShape" x="94" y="15" class="st0" width="12" height="12"/>
		</defs>
		<clipPath id="octaType1Clipper">
			<use xlink:href="#octaType1ClipperShape"  style="overflow:visible;"/>
		</clipPath>
		<g style="clip-path:url(#octaType1Clipper);">
			<path class="statBgIconStyle" d="M104.33,22.25l-4.19,2.61v-5.23L104.33,22.25z"/>
			<path class="statBgIconStyle" d="M95.57,23.95l3.51-2.19v4.38L95.57,23.95z"/>
			<path class="statBgIconStyle" d="M101.54,19.12c0.78,0,1.42-0.63,1.42-1.42c0-0.78-0.63-1.42-1.42-1.42s-1.42,0.63-1.42,1.42
				C100.12,18.49,100.76,19.12,101.54,19.12z"/>
			<path class="statBgIconStyle" d="M97.86,21.24c0.67,0,1.22-0.55,1.22-1.22s-0.55-1.22-1.22-1.22c-0.67,0-1.22,0.55-1.22,1.22
				S97.19,21.24,97.86,21.24z"/>
		</g>
	</g>
	<g id="octaType2Tree">
		<defs>
			<rect id="octaType2ClipperShape" x="163" y="55" class="st0" width="12" height="12"/>
		</defs>
		<clipPath id="octaType2Clipper">
			<use xlink:href="#octaType2ClipperShape"  style="overflow:visible;"/>
		</clipPath>
		<g style="clip-path:url(#octaType2Clipper);">
			<path class="statBgIconStyle" d="M169,61.86l2.55,4.1h-5.11L169,61.86z"/>
			<path class="statBgIconStyle" d="M171.15,63.23c0.73-0.47,1.29-1.16,1.6-1.97c0.3-0.81,0.33-1.7,0.09-2.54c-0.25-0.83-0.76-1.56-1.46-2.08
				c-0.7-0.52-1.55-0.79-2.42-0.78c-0.87,0.01-1.71,0.3-2.4,0.83s-1.19,1.27-1.42,2.11s-0.18,1.73,0.14,2.54
				c0.32,0.81,0.89,1.49,1.64,1.94l2.13-3.42L171.15,63.23z"/>
		</g>
	</g>
	<g id="octaType3Fire">
		<defs>
			<rect id="octaType3ClipperShape" x="163" y="133" width="12" height="12"/>
		</defs>
		<clipPath id="octaType3Clipper">
			<use xlink:href="#octaType3ClipperShape"  style="overflow:visible;"/>
		</clipPath>
		<g style="clip-path:url(#octaType3Clipper);">
			<path class="statBgIconStyle" d="M165.99,135.83l6.77,5.09l-3.71,2.98l-3.71-2.98L165.99,135.83z"/>
			<path class="statBgIconStyle" d="M168.5,133.81l1.11,1.74l-1.11,0.89l-1.11-0.89L168.5,133.81z"/>
			<path class="statBgIconStyle" d="M172.1,134.95l-2.69,2.2l3.34,2.52L172.1,134.95z"/>
		</g>
	</g>
	<g id="octatype4Soil">
		<defs>
			<rect id="octatype4ClipperShape" x="94" y="174" width="12" height="12"/>
		</defs>
		<clipPath id="octatype4Clipper">
			<use xlink:href="#octatype4ClipperShape"  style="overflow:visible;"/>
		</clipPath>
		<g style="clip-path:url(#octatype4Clipper);">
			<path class="statBgIconStyle" d="M100.18,181.98c-0.79-0.35-1.55-0.35-2.3,0.12c-0.31,0.2-0.62,0.41-0.92,0.62c-0.15,0.1-0.3,0.21-0.45,0.31
				c0.41,0.47,0.91,0.86,1.48,1.13c0.56,0.27,1.18,0.43,1.8,0.46c0.63,0.03,1.25-0.07,1.84-0.29c0.59-0.22,1.12-0.56,1.57-0.99
				c-0.48-0.12-0.95-0.29-1.38-0.52C101.28,182.52,100.74,182.23,100.18,181.98z"/>
			<path class="statBgIconStyle" d="M98.26,176.88c0.85,0,1.64,0.25,2.42,0.54c1.25,0.46,2.49,0.97,3.77,1.34c-0.24-0.84-0.7-1.6-1.35-2.18
				c-0.65-0.59-1.45-0.98-2.31-1.12c-0.86-0.15-1.74-0.05-2.55,0.28c-0.81,0.33-1.5,0.89-2.01,1.6l0.05-0.02
				C96.92,177.07,97.57,176.88,98.26,176.88z"/>
			<path class="statBgIconStyle" d="M101.67,178.92c-0.88-0.33-1.75-0.71-2.69-0.87c-0.55-0.1-1.12-0.09-1.67,0.05
				c-0.6,0.16-1.19,0.38-1.75,0.64c-0.33,1.16-0.19,2.4,0.38,3.46c0.12-0.07,0.25-0.15,0.36-0.23c0.51-0.34,0.99-0.72,1.52-1.01
				c0.56-0.3,1.14-0.42,1.76-0.27c0.7,0.17,1.33,0.52,1.97,0.87c0.76,0.41,1.55,0.75,2.42,0.8c0.42-0.71,0.64-1.52,0.64-2.35
				c0-0.03,0-0.06,0-0.08c-0.41-0.11-0.81-0.22-1.2-0.36C102.83,179.35,102.25,179.14,101.67,178.92z"/>
		</g>
	</g>
	<g id="octaType5Gold">
		<defs>
			<rect id="octaType5ClipperShape" x="25" y="133" width="12" height="12"/>
		</defs>
		<clipPath id="octaType5Clipper">
			<use xlink:href="#octaType5ClipperShape"  style="overflow:visible;"/>
		</clipPath>
		<g style="clip-path:url(#octaType5Clipper);">
			<path class="statBgIconStyle" d="M27.19,138.87l3.74-4.86l3.74,4.86l-3.74,4.86L27.19,138.87z"/>
			<path class="statBgIconStyle" d="M33.68,141.75l1.06-1.38l1.06,1.38l-1.06,1.38L33.68,141.75z"/>
			<path class="statBgIconStyle" d="M26.74,135.97l0.77-1l0.77,1l-0.77,1L26.74,135.97z"/>
		</g>
	</g>
	<g id="octaType6Water">
		<defs>
			<rect id="octaType6ClipperShape" x="25" y="55" width="12" height="12"/>
		</defs>
		<clipPath id="octaType6Clipper">
			<use xlink:href="#octaType6ClipperShape"  style="overflow:visible;"/>
		</clipPath>
		<g style="clip-path:url(#octaType6Clipper);">
			<path class="statBgIconStyle" d="M34.07,60.83c0.52,0.18,1.03,0.39,1.53,0.56c0.01-0.13,0.02-0.26,0.02-0.39c0-1.09-0.38-2.14-1.08-2.97
				c-0.7-0.83-1.67-1.39-2.74-1.58c-1.07-0.19-2.17,0.01-3.11,0.56c-0.94,0.55-1.66,1.41-2.03,2.43c1.22-0.26,2.37,0.05,3.41,0.87
				c0.36,0.28,0.68,0.59,1.01,0.91C31.91,60.59,33.08,60.5,34.07,60.83z"/>
			<path class="statBgIconStyle" d="M34.35,61.88c-0.84-0.29-1.81-0.39-2.59-0.04c0.07,0.06,0.13,0.11,0.2,0.17c0.87,0.7,1.89,1.18,2.99,1.39
				c0.2-0.34,0.36-0.7,0.48-1.08C35.07,62.16,34.72,62.01,34.35,61.88z"/>
			<path class="statBgIconStyle" d="M29.87,61.26c-1.05-0.83-2.22-1.13-3.45-0.86c-0.13,0.96,0.05,1.93,0.51,2.79
				c0.46,0.85,1.17,1.54,2.04,1.96c0.87,0.42,1.85,0.57,2.8,0.4c0.95-0.16,1.83-0.62,2.51-1.31c-0.92-0.25-1.78-0.69-2.52-1.29
				C31.1,62.43,30.54,61.78,29.87,61.26z"/>
		</g>
	</g>
</g>
<g id="currentStats">
	<polygon id="100percent" class="currentStatStyle" fill="url(#currentStatStyleGradient)" points="100,35 156.39,67.5 156.39,132.5 100,165 43.61,132.5 43.61,67.5 "/>
	<polygon id="0percent" class="currentStatStyle" fill="url(#currentStatStyleGradient)" points="100,85 113.01,92.5 113.01,107.5 100,115 86.99,107.5 86.99,92.5  "/>
	<linearGradient id="currentStatStyleGradient" gradientUnits="userSpaceOnUse" x1="43.6111" y1="100" x2="156.3889" y2="100">
		<stop  offset="0" style="stop-color:#AE7BFA"/>
		<stop  offset="0.5" style="stop-color:#6489E7"/>
		<stop  offset="1" style="stop-color:#78EDFD"/>
	</linearGradient>
</g>
<g id="text">
	<text x="192" y="48" class="textGithubIDStyle">hyochan</text>
	<text x="192" y="68" class="textSubtitleStyle">GitHub Stats</text>
	<text x="192" y="108" class="textContentStyle">68<tspan class="textContentLabelStyle"> Average Points </tspan></text>
	<text x="192" y="130" class="textContentStyle">Platinum<tspan class="textContentLabelStyle"> Highest Rank</tspan></text>
	<text x="192" y="160" class="textInfoStyle">supported by dooboolab.io</text>
</g>
</svg>