<svg width="64" height="64" viewBox="0 0 64 64" fill="none" xmlns="http://www.w3.org/2000/svg">
<g filter="url(#filter0_di_348_659)">
<path d="M42.9899 17.9661C42.9899 19.3494 37.508 21.3398 32.9799 21.3398V36.4468C32.98 37.9935 33.2563 39.5158 33.784 40.8772C34.3117 42.2385 35.0743 43.3961 36.0031 44.2459C38.2526 46.2959 41.2061 49.1595 42.9899 51.4849C44.7737 49.1595 47.7362 46.2959 49.9767 44.2459C50.9055 43.3961 51.6681 42.2385 52.1958 40.8772C52.7235 39.5158 52.9998 37.9935 52.9999 36.4468V21.3398C48.4718 21.3398 42.9899 19.3494 42.9899 17.9661Z" fill="url(#paint0_linear_348_659)"/>
</g>
<path d="M42.9899 17.9661C42.9899 19.3494 37.508 21.3398 32.9799 21.3398V36.4468C32.98 37.9935 33.2563 39.5158 33.784 40.8772C34.3117 42.2385 35.0743 43.3961 36.0031 44.2459C38.2526 46.2959 41.2061 49.1595 42.9899 51.4849C44.7737 49.1595 47.7362 46.2959 49.9767 44.2459C50.9055 43.3961 51.6681 42.2385 52.1958 40.8772C52.7235 39.5158 52.9998 37.9935 52.9999 36.4468V21.3398C48.4718 21.3398 42.9899 19.3494 42.9899 17.9661Z" fill="url(#paint1_linear_348_659)"/>
<path d="M42.9115 17.9661C42.9115 19.3494 37.4725 21.3398 32.9799 21.3398V36.4468C32.98 37.9935 33.2542 39.5158 33.7777 40.8772C34.3013 42.2385 35.0579 43.3961 35.9794 44.2459C38.2113 46.2959 41.1416 49.1595 42.9115 51.4849C44.6813 49.1595 47.6206 46.2959 49.8435 44.2459C50.7651 43.3961 51.5216 42.2385 52.0452 40.8772C56.684 28.8159 42.9115 24.3259 42.9115 17.9661Z" fill="white" fill-opacity="0.3" style="mix-blend-mode:soft-light"/>
<path d="M42.9115 17.9661C42.9115 19.3494 37.4725 21.3398 32.9799 21.3398V36.4468C32.98 37.9935 33.2542 39.5158 33.7777 40.8772C34.3013 42.2385 35.0579 43.3961 35.9794 44.2459C38.2113 46.2959 41.1416 49.1595 42.9115 51.4849C44.6813 49.1595 47.6206 46.2959 49.8435 44.2459C50.7651 43.3961 51.5216 42.2385 52.0452 40.8772C56.684 28.8159 42.9115 24.3259 42.9115 17.9661Z" fill="white" fill-opacity="0.3" style="mix-blend-mode:soft-light"/>
<path d="M42.9899 17.9661C42.9899 19.3494 37.508 21.3398 32.9799 21.3398V36.4468C32.98 37.9935 33.2563 39.5158 33.784 40.8772C34.3117 42.2385 35.0743 43.3961 36.0031 44.2459C38.2526 46.2959 41.2061 49.1595 42.9899 51.4849C42.9899 51.4849 42.9899 38.7633 42.9899 17.9661Z" fill="url(#paint2_linear_348_659)" fill-opacity="0.7" style="mix-blend-mode:lighten"/>
<path d="M42.9899 17.9661C42.9899 19.3494 37.508 21.3398 32.9799 21.3398V36.4468C32.98 37.9935 33.2563 39.5158 33.784 40.8772C34.3117 42.2385 35.0743 43.3961 36.0031 44.2459C38.2526 46.2959 41.2061 49.1595 42.9899 51.4849C42.9899 51.4849 42.9899 38.7633 42.9899 17.9661Z" fill="url(#paint3_linear_348_659)" fill-opacity="0.7" style="mix-blend-mode:lighten"/>
<g filter="url(#filter1_di_348_659)">
<path d="M21.07 17.9661C21.07 19.3494 26.5519 21.3398 31.08 21.3398V36.4468C31.0799 37.9935 30.8035 39.5158 30.2758 40.8772C29.7481 42.2385 28.9856 43.3961 28.0568 44.2459C25.8073 46.2959 22.8538 49.1595 21.07 51.4849C19.2862 49.1595 16.3236 46.2959 14.0832 44.2459C13.1543 43.3961 12.3918 42.2385 11.8641 40.8772C11.3364 39.5158 11.0601 37.9935 11.0599 36.4468V21.3398C15.5881 21.3398 21.07 19.3494 21.07 17.9661Z" fill="url(#paint4_linear_348_659)"/>
</g>
<path d="M21.07 17.9661C21.07 19.3494 26.5519 21.3398 31.08 21.3398V36.4468C31.0799 37.9935 30.8035 39.5158 30.2758 40.8772C29.7481 42.2385 28.9856 43.3961 28.0568 44.2459C25.8073 46.2959 22.8538 49.1595 21.07 51.4849C19.2862 49.1595 16.3236 46.2959 14.0832 44.2459C13.1543 43.3961 12.3918 42.2385 11.8641 40.8772C11.3364 39.5158 11.0601 37.9935 11.0599 36.4468V21.3398C15.5881 21.3398 21.07 19.3494 21.07 17.9661Z" fill="url(#paint5_linear_348_659)"/>
<path d="M21.1484 17.9661C21.1484 19.3494 26.5874 21.3398 31.08 21.3398V36.4468C31.0799 37.9935 30.8057 39.5158 30.2821 40.8772C29.7586 42.2385 29.002 43.3961 28.0804 44.2459C25.8486 46.2959 22.9182 49.1595 21.1484 51.4849C19.3786 49.1595 16.4392 46.2959 14.2164 44.2459C13.2948 43.3961 12.5382 42.2385 12.0147 40.8772C7.37587 28.8159 21.1484 24.3259 21.1484 17.9661Z" fill="white" fill-opacity="0.3" style="mix-blend-mode:soft-light"/>
<path d="M21.1484 17.9661C21.1484 19.3494 26.5874 21.3398 31.08 21.3398V36.4468C31.0799 37.9935 30.8057 39.5158 30.2821 40.8772C29.7586 42.2385 29.002 43.3961 28.0804 44.2459C25.8486 46.2959 22.9182 49.1595 21.1484 51.4849C19.3786 49.1595 16.4392 46.2959 14.2164 44.2459C13.2948 43.3961 12.5382 42.2385 12.0147 40.8772C7.37587 28.8159 21.1484 24.3259 21.1484 17.9661Z" fill="white" fill-opacity="0.3" style="mix-blend-mode:soft-light"/>
<path d="M21.07 17.9661C21.07 19.3494 26.5519 21.3398 31.08 21.3398V36.4468C31.0799 37.9935 30.8035 39.5158 30.2758 40.8772C29.7481 42.2385 28.9856 43.3961 28.0568 44.2459C25.8073 46.2959 22.8538 49.1595 21.07 51.4849C21.07 51.4849 21.07 38.7633 21.07 17.9661Z" fill="url(#paint6_linear_348_659)" fill-opacity="0.7" style="mix-blend-mode:lighten"/>
<path d="M21.07 17.9661C21.07 19.3494 26.5519 21.3398 31.08 21.3398V36.4468C31.0799 37.9935 30.8035 39.5158 30.2758 40.8772C29.7481 42.2385 28.9856 43.3961 28.0568 44.2459C25.8073 46.2959 22.8538 49.1595 21.07 51.4849C21.07 51.4849 21.07 38.7633 21.07 17.9661Z" fill="url(#paint7_linear_348_659)" fill-opacity="0.7" style="mix-blend-mode:lighten"/>
<g filter="url(#filter2_di_348_659)">
<path d="M32.0172 7C32.0172 9.03655 23.0205 11.9669 15.5892 11.9669V34.2077C15.5894 36.4848 16.0429 38.7261 16.909 40.7302C17.775 42.7344 19.0264 44.4387 20.5508 45.6898C24.2425 48.7078 29.0897 52.9237 32.0172 56.3471C34.9447 52.9237 39.8066 48.7078 43.4835 45.6898C45.0079 44.4387 46.2593 42.7344 47.1254 40.7302C47.9914 38.7261 48.4449 36.4848 48.4452 34.2077V11.9669C41.0138 11.9669 32.0172 9.03655 32.0172 7Z" fill="url(#paint8_linear_348_659)"/>
</g>
<path d="M32.0172 7C32.0172 9.03655 23.0205 11.9669 15.5892 11.9669V34.2077C15.5894 36.4848 16.0429 38.7261 16.909 40.7302C17.775 42.7344 19.0264 44.4387 20.5508 45.6898C24.2425 48.7078 29.0897 52.9237 32.0172 56.3471C34.9447 52.9237 39.8066 48.7078 43.4835 45.6898C45.0079 44.4387 46.2593 42.7344 47.1254 40.7302C47.9914 38.7261 48.4449 36.4848 48.4452 34.2077V11.9669C41.0138 11.9669 32.0172 9.03655 32.0172 7Z" fill="url(#paint9_linear_348_659)"/>
<path d="M31.8885 7C31.8885 9.03655 22.9623 11.9669 15.5892 11.9669V34.2077C15.5894 36.4848 16.0394 38.7261 16.8986 40.7302C17.7579 42.7344 18.9995 44.4387 20.5119 45.6898C24.1747 48.7078 28.9839 52.9237 31.8885 56.3471C34.793 52.9237 39.6169 48.7078 43.265 45.6898C44.7774 44.4387 46.0191 42.7344 46.8783 40.7302C54.4913 22.9734 31.8885 16.3631 31.8885 7Z" fill="white" fill-opacity="0.3" style="mix-blend-mode:soft-light"/>
<path d="M31.8885 7C31.8885 9.03655 22.9623 11.9669 15.5892 11.9669V34.2077C15.5894 36.4848 16.0394 38.7261 16.8986 40.7302C17.7579 42.7344 18.9995 44.4387 20.5119 45.6898C24.1747 48.7078 28.9839 52.9237 31.8885 56.3471C34.793 52.9237 39.6169 48.7078 43.265 45.6898C44.7774 44.4387 46.0191 42.7344 46.8783 40.7302C54.4913 22.9734 31.8885 16.3631 31.8885 7Z" fill="white" fill-opacity="0.3" style="mix-blend-mode:soft-light"/>
<path d="M32.0172 7C32.0172 9.03655 23.0205 11.9669 15.5892 11.9669V34.2077C15.5894 36.4848 16.0429 38.7261 16.909 40.7302C17.775 42.7344 19.0264 44.4387 20.5508 45.6898C24.2425 48.7078 29.0897 52.9237 32.0172 56.3471C32.0172 56.3471 32.0172 37.6182 32.0172 7Z" fill="url(#paint10_linear_348_659)" fill-opacity="0.7" style="mix-blend-mode:lighten"/>
<path d="M32.0172 7C32.0172 9.03655 23.0205 11.9669 15.5892 11.9669V34.2077C15.5894 36.4848 16.0429 38.7261 16.909 40.7302C17.775 42.7344 19.0264 44.4387 20.5508 45.6898C24.2425 48.7078 29.0897 52.9237 32.0172 56.3471C32.0172 56.3471 32.0172 37.6182 32.0172 7Z" fill="url(#paint11_linear_348_659)" fill-opacity="0.7" style="mix-blend-mode:lighten"/>
<g filter="url(#filter3_i_348_659)">
<path d="M32.0171 11.8376C32.0171 13.395 25.0198 15.6359 19.2398 15.6359V32.6435C19.24 34.3848 19.5927 36.0988 20.2663 37.6314C20.9399 39.164 21.9132 40.4672 23.0988 41.424C25.9702 43.7318 29.7402 46.9558 32.0171 49.5737C34.2941 46.9558 38.0756 43.7318 40.9354 41.424C42.121 40.4672 43.0944 39.164 43.768 37.6314C44.4416 36.0988 44.7943 34.3848 44.7945 32.6435V15.6359C39.0145 15.6359 32.0171 13.395 32.0171 11.8376Z" fill="#A495FF" fill-opacity="0.5" style="mix-blend-mode:screen"/>
</g>
<defs>
<filter id="filter0_di_348_659" x="29.9799" y="14.9661" width="26.0201" height="39.5188" filterUnits="userSpaceOnUse" color-interpolation-filters="sRGB">
<feFlood flood-opacity="0" result="BackgroundImageFix"/>
<feColorMatrix in="SourceAlpha" type="matrix" values="0 0 0 0 0 0 0 0 0 0 0 0 0 0 0 0 0 0 127 0" result="hardAlpha"/>
<feOffset/>
<feGaussianBlur stdDeviation="1.5"/>
<feComposite in2="hardAlpha" operator="out"/>
<feColorMatrix type="matrix" values="0 0 0 0 0 0 0 0 0 0 0 0 0 0 0 0 0 0 0.3 0"/>
<feBlend mode="normal" in2="BackgroundImageFix" result="effect1_dropShadow_348_659"/>
<feBlend mode="normal" in="SourceGraphic" in2="effect1_dropShadow_348_659" result="shape"/>
<feColorMatrix in="SourceAlpha" type="matrix" values="0 0 0 0 0 0 0 0 0 0 0 0 0 0 0 0 0 0 127 0" result="hardAlpha"/>
<feOffset dy="-3"/>
<feGaussianBlur stdDeviation="4"/>
<feComposite in2="hardAlpha" operator="arithmetic" k2="-1" k3="1"/>
<feColorMatrix type="matrix" values="0 0 0 0 0 0 0 0 0 0 0 0 0 0 0 0 0 0 0.4 0"/>
<feBlend mode="normal" in2="shape" result="effect2_innerShadow_348_659"/>
</filter>
<filter id="filter1_di_348_659" x="8.05994" y="14.9661" width="26.0201" height="39.5188" filterUnits="userSpaceOnUse" color-interpolation-filters="sRGB">
<feFlood flood-opacity="0" result="BackgroundImageFix"/>
<feColorMatrix in="SourceAlpha" type="matrix" values="0 0 0 0 0 0 0 0 0 0 0 0 0 0 0 0 0 0 127 0" result="hardAlpha"/>
<feOffset/>
<feGaussianBlur stdDeviation="1.5"/>
<feComposite in2="hardAlpha" operator="out"/>
<feColorMatrix type="matrix" values="0 0 0 0 0 0 0 0 0 0 0 0 0 0 0 0 0 0 0.3 0"/>
<feBlend mode="normal" in2="BackgroundImageFix" result="effect1_dropShadow_348_659"/>
<feBlend mode="normal" in="SourceGraphic" in2="effect1_dropShadow_348_659" result="shape"/>
<feColorMatrix in="SourceAlpha" type="matrix" values="0 0 0 0 0 0 0 0 0 0 0 0 0 0 0 0 0 0 127 0" result="hardAlpha"/>
<feOffset dy="-3"/>
<feGaussianBlur stdDeviation="4"/>
<feComposite in2="hardAlpha" operator="arithmetic" k2="-1" k3="1"/>
<feColorMatrix type="matrix" values="0 0 0 0 0 0 0 0 0 0 0 0 0 0 0 0 0 0 0.4 0"/>
<feBlend mode="normal" in2="shape" result="effect2_innerShadow_348_659"/>
</filter>
<filter id="filter2_di_348_659" x="12.5892" y="4" width="38.856" height="55.3472" filterUnits="userSpaceOnUse" color-interpolation-filters="sRGB">
<feFlood flood-opacity="0" result="BackgroundImageFix"/>
<feColorMatrix in="SourceAlpha" type="matrix" values="0 0 0 0 0 0 0 0 0 0 0 0 0 0 0 0 0 0 127 0" result="hardAlpha"/>
<feOffset/>
<feGaussianBlur stdDeviation="1.5"/>
<feComposite in2="hardAlpha" operator="out"/>
<feColorMatrix type="matrix" values="0 0 0 0 0 0 0 0 0 0 0 0 0 0 0 0 0 0 0.3 0"/>
<feBlend mode="normal" in2="BackgroundImageFix" result="effect1_dropShadow_348_659"/>
<feBlend mode="normal" in="SourceGraphic" in2="effect1_dropShadow_348_659" result="shape"/>
<feColorMatrix in="SourceAlpha" type="matrix" values="0 0 0 0 0 0 0 0 0 0 0 0 0 0 0 0 0 0 127 0" result="hardAlpha"/>
<feOffset dy="-3"/>
<feGaussianBlur stdDeviation="4"/>
<feComposite in2="hardAlpha" operator="arithmetic" k2="-1" k3="1"/>
<feColorMatrix type="matrix" values="0 0 0 0 0 0 0 0 0 0 0 0 0 0 0 0 0 0 0.4 0"/>
<feBlend mode="normal" in2="shape" result="effect2_innerShadow_348_659"/>
</filter>
<filter id="filter3_i_348_659" x="19.2398" y="7.83765" width="25.5547" height="41.7361" filterUnits="userSpaceOnUse" color-interpolation-filters="sRGB">
<feFlood flood-opacity="0" result="BackgroundImageFix"/>
<feBlend mode="normal" in="SourceGraphic" in2="BackgroundImageFix" result="shape"/>
<feColorMatrix in="SourceAlpha" type="matrix" values="0 0 0 0 0 0 0 0 0 0 0 0 0 0 0 0 0 0 127 0" result="hardAlpha"/>
<feOffset dy="-4"/>
<feGaussianBlur stdDeviation="8"/>
<feComposite in2="hardAlpha" operator="arithmetic" k2="-1" k3="1"/>
<feColorMatrix type="matrix" values="0 0 0 0 0.260417 0 0 0 0 0.627083 0 0 0 0 0.833333 0 0 0 0.25 0"/>
<feBlend mode="normal" in2="shape" result="effect1_innerShadow_348_659"/>
</filter>
<linearGradient id="paint0_linear_348_659" x1="42.9899" y1="17.9661" x2="42.9899" y2="51.4849" gradientUnits="userSpaceOnUse">
<stop stop-color="#D172FF"/>
<stop offset="0.505208" stop-color="#5997EB"/>
<stop offset="1" stop-color="#4DFFFF"/>
</linearGradient>
<linearGradient id="paint1_linear_348_659" x1="42.9899" y1="17.9661" x2="42.9899" y2="51.4849" gradientUnits="userSpaceOnUse">
<stop stop-color="#2ED1F4" stop-opacity="0.3"/>
<stop offset="0.505208" stop-color="#397FDD" stop-opacity="0.31"/>
<stop offset="1" stop-color="#6EEFEF"/>
</linearGradient>
<linearGradient id="paint2_linear_348_659" x1="32.9799" y1="21.2522" x2="43.3653" y2="47.7228" gradientUnits="userSpaceOnUse">
<stop stop-color="white" stop-opacity="0.44"/>
<stop offset="1" stop-color="white" stop-opacity="0.46"/>
</linearGradient>
<linearGradient id="paint3_linear_348_659" x1="32.9799" y1="21.2522" x2="43.3653" y2="47.7228" gradientUnits="userSpaceOnUse">
<stop stop-color="white" stop-opacity="0.44"/>
<stop offset="1" stop-color="white" stop-opacity="0.46"/>
</linearGradient>
<linearGradient id="paint4_linear_348_659" x1="21.07" y1="17.9661" x2="21.07" y2="51.4849" gradientUnits="userSpaceOnUse">
<stop stop-color="#D172FF"/>
<stop offset="0.505208" stop-color="#5997EB"/>
<stop offset="1" stop-color="#4DFFFF"/>
</linearGradient>
<linearGradient id="paint5_linear_348_659" x1="21.07" y1="17.9661" x2="21.07" y2="51.4849" gradientUnits="userSpaceOnUse">
<stop stop-color="#2ED1F4" stop-opacity="0.3"/>
<stop offset="0.505208" stop-color="#397FDD" stop-opacity="0.31"/>
<stop offset="1" stop-color="#6EEFEF"/>
</linearGradient>
<linearGradient id="paint6_linear_348_659" x1="31.08" y1="21.2522" x2="20.6946" y2="47.7228" gradientUnits="userSpaceOnUse">
<stop stop-color="white" stop-opacity="0.44"/>
<stop offset="1" stop-color="white" stop-opacity="0.46"/>
</linearGradient>
<linearGradient id="paint7_linear_348_659" x1="31.08" y1="21.2522" x2="20.6946" y2="47.7228" gradientUnits="userSpaceOnUse">
<stop stop-color="white" stop-opacity="0.44"/>
<stop offset="1" stop-color="white" stop-opacity="0.46"/>
</linearGradient>
<linearGradient id="paint8_linear_348_659" x1="32.0172" y1="7" x2="32.0172" y2="56.3471" gradientUnits="userSpaceOnUse">
<stop stop-color="#D172FF"/>
<stop offset="0.505208" stop-color="#5997EB"/>
<stop offset="1" stop-color="#4DFFFF"/>
</linearGradient>
<linearGradient id="paint9_linear_348_659" x1="32.0172" y1="7" x2="32.0172" y2="56.3471" gradientUnits="userSpaceOnUse">
<stop stop-color="#2ED1F4" stop-opacity="0.3"/>
<stop offset="0.505208" stop-color="#397FDD" stop-opacity="0.31"/>
<stop offset="1" stop-color="#6EEFEF"/>
</linearGradient>
<linearGradient id="paint10_linear_348_659" x1="15.5892" y1="11.838" x2="29.6718" y2="51.8508" gradientUnits="userSpaceOnUse">
<stop stop-color="white" stop-opacity="0.44"/>
<stop offset="1" stop-color="white" stop-opacity="0.46"/>
</linearGradient>
<linearGradient id="paint11_linear_348_659" x1="15.5892" y1="11.838" x2="29.6718" y2="51.8508" gradientUnits="userSpaceOnUse">
<stop stop-color="white" stop-opacity="0.44"/>
<stop offset="1" stop-color="white" stop-opacity="0.46"/>
</linearGradient>
</defs>
</svg>
